# xmcd
#
# Track frame offsets:
#	150
#	11677
#	23379
#	33712
#	49229
#	61320
#	74852
#	85679
#	98492
#	109322
#	122931
#	141326
#	154137
#	166587
#	180261
#	192524
#	204501
#	234644
#	245540
#	259092
#	271441
#	285573
#	298235
#	312016
#
# Disc length: 4310 seconds
#
# Revision: 1
# Processed by: cddbd v1.5.1PL0 Copyright (c) Steve Scherf et al.
# Submitted via: audiograbber 1.81.01
#
DISCID=5e10d418
DTITLE=Little Milton - The Complete Checker Hit Singles
DYEAR=2001
DGENRE=Blues
TTITLE0=So Mean To Me
TTITLE1=Losing Hand
TTITLE2=What Kind Of Love Is This
TTITLE3=Blind Man
TTITLE4=We're Gonna Make It
TTITLE5=Who's Cheating Who
TTITLE6=Your People
TTITLE7=We Got The Winning Hand
TTITLE8=When Does Heartache End
TTITLE9=Man Loves Two
TTITLE10=Feels So Bad
TTITLE11=I'll Never Turn My Back On You
TTITLE12=More And More
TTITLE13=The Dark End Of The Street
TTITLE14=Let Me Down Easy
TTITLE15=Grits Ain't Groceries
TTITLE16=I Can't Quit You Baby
TTITLE17=Just A Little Bit
TTITLE18=Let's Get Together
TTITLE19=Poor Man
TTITLE20=If Walls Could Talk
TTITLE21=Baby I Love You
TTITLE22=Somebody's Changing My Sweet Baby's Mind
TTITLE23=I Play Dirty
EXTD=Walle upped this
EXTT0=
EXTT1=
EXTT2=
EXTT3=
EXTT4=
EXTT5=
EXTT6=
EXTT7=
EXTT8=
EXTT9=
EXTT10=
EXTT11=
EXTT12=
EXTT13=
EXTT14=
EXTT15=
EXTT16=
EXTT17=
EXTT18=
EXTT19=
EXTT20=
EXTT21=
EXTT22=
EXTT23=
PLAYORDER=
